<?xml version="1.0" encoding="UTF-8" standalone="no"?>
<!-- Created with Inkscape (http://www.inkscape.org/) -->

<svg
   width="66.145432mm"
   height="21.626778mm"
   viewBox="0 0 66.145432 21.626778"
   version="1.1"
   id="svg5"
   inkscape:version="1.2.2 (b0a8486541, 2022-12-01)"
   sodipodi:docname="logo_full.svg"
   xmlns:inkscape="http://www.inkscape.org/namespaces/inkscape"
   xmlns:sodipodi="http://sodipodi.sourceforge.net/DTD/sodipodi-0.dtd"
   xmlns="http://www.w3.org/2000/svg"
   xmlns:svg="http://www.w3.org/2000/svg">
  <sodipodi:namedview
     id="namedview7"
     pagecolor="#ffffff"
     bordercolor="#000000"
     borderopacity="0.25"
     inkscape:showpageshadow="2"
     inkscape:pageopacity="0.0"
     inkscape:pagecheckerboard="0"
     inkscape:deskcolor="#d1d1d1"
     inkscape:document-units="mm"
     showgrid="false"
     inkscape:zoom="2.8284271"
     inkscape:cx="63.993163"
     inkscape:cy="14.495689"
     inkscape:window-width="1920"
     inkscape:window-height="1029"
     inkscape:window-x="1920"
     inkscape:window-y="44"
     inkscape:window-maximized="0"
     inkscape:current-layer="g7081" />
  <defs
     id="defs2" />
  <g
     inkscape:label="Calque 1"
     inkscape:groupmode="layer"
     id="layer1"
     transform="translate(-60.99222,-86.727936)">
    <g
       id="g7081"
       transform="matrix(0.46517009,0,0,0.46517009,50.308741,52.168018)">
      <path
         id="path305"
         style="font-size:35.0312px;font-family:Timmana;-inkscape-font-specification:Timmana;opacity:1;fill:#455d7a;stroke-width:110.334;stroke-linecap:round"
         d="m 104.93011,74.295228 c -0.71619,0 -1.33919,0.249425 -1.86855,0.747646 -0.52936,0.49822 -0.87191,1.136747 -1.0276,1.915217 -0.0934,0.74733 0.0618,1.369226 0.46658,1.867448 0.40481,0.467081 0.96574,0.700987 1.68193,0.700987 0.68505,0 1.29254,-0.233906 1.8219,-0.700987 0.52936,-0.498222 0.85638,-1.120118 0.98094,-1.867448 0.0934,-0.77847 -0.0629,-1.416997 -0.4677,-1.915217 -0.37366,-0.498221 -0.90244,-0.747646 -1.5875,-0.747646 z m 35.73147,0 c -0.7162,0 -1.3392,0.249425 -1.86856,0.747646 -0.52936,0.49822 -0.8719,1.136747 -1.0276,1.915217 -0.0934,0.74733 0.0629,1.369226 0.4677,1.867448 0.4048,0.467081 0.96462,0.700987 1.68081,0.700987 0.68505,0 1.29254,-0.233906 1.8219,-0.700987 0.52936,-0.498222 0.85638,-1.120118 0.98094,-1.867448 0.0934,-0.77847 -0.0618,-1.416997 -0.46659,-1.915217 -0.37365,-0.498221 -0.90355,-0.747646 -1.5886,-0.747646 z m -53.994905,0.466584 -4.436993,0.607671 -3.222764,23.167016 h 4.343677 z m 46.941705,0 -4.43699,0.607671 -3.22277,23.167016 h 4.34368 z m -88.698769,2.569546 -4.950236,21.205141 h 4.343677 L 47.05812,85.037774 c 0.06228,0.373666 0.140987,0.888034 0.234403,1.54195 0.09342,0.653914 0.186534,1.37004 0.279951,2.148509 0.124555,0.778469 0.248712,1.587712 0.373267,2.42846 0.155694,0.809608 0.296482,1.587812 0.421037,2.335142 0.124555,0.747332 0.233192,1.416898 0.326609,2.008534 0.09342,0.560499 0.155493,0.98175 0.186633,1.262 h 3.082789 l 0.561012,-1.262 c 0.24911,-0.591636 0.528464,-1.261202 0.839851,-2.008534 0.342527,-0.778469 0.700589,-1.587712 1.074255,-2.428459 0.373666,-0.840748 0.716209,-1.649991 1.027596,-2.42846 0.342527,-0.778469 0.638511,-1.494595 0.887621,-2.148509 0.280249,-0.653914 0.498634,-1.137245 0.654329,-1.448633 -0.03114,0.435944 -0.07769,1.043431 -0.139975,1.8219 -0.06228,0.747332 -0.124354,1.556574 -0.186634,2.42846 -0.06227,0.871885 -0.125465,1.775358 -0.187745,2.709521 -0.03114,0.934163 -0.09322,1.837635 -0.186633,2.709521 -0.06228,0.840747 -0.108836,1.603431 -0.139976,2.288485 -0.03114,0.685053 -0.06218,1.198313 -0.09332,1.540838 h 4.53031 l 1.0276,-21.205141 h -4.390335 c -0.155694,0.311389 -0.3896,0.809127 -0.700987,1.494181 -0.28025,0.653913 -0.622793,1.402188 -1.027596,2.242937 -0.373666,0.840746 -0.778288,1.743108 -1.21423,2.70841 -0.435944,0.934163 -0.840564,1.853155 -1.21423,2.756179 -0.373666,0.903025 -0.731728,1.727788 -1.074255,2.475118 -0.311387,0.747332 -0.529774,1.323779 -0.654328,1.728584 -0.06228,-0.435944 -0.139876,-1.027912 -0.233293,-1.775242 -0.09342,-0.747331 -0.202054,-1.556574 -0.326608,-2.42846 -0.124556,-0.903024 -0.264232,-1.837536 -0.419926,-2.802838 -0.155695,-0.965302 -0.312003,-1.852144 -0.467695,-2.661751 -0.124556,-0.840749 -0.248713,-1.589024 -0.373268,-2.242937 -0.124554,-0.685054 -0.203263,-1.182792 -0.234403,-1.494181 z m 50.351101,0 -4.436994,0.700988 -0.559901,3.969298 h -1.775241 l -0.419926,3.176105 h 1.774131 l -1.260889,8.548489 c -0.249109,1.899467 -0.109433,3.254117 0.419926,4.063727 0.52936,0.778469 1.541469,1.167571 3.03613,1.167571 0.498221,0 0.966031,-0.04656 1.401975,-0.139975 0.467081,-0.09342 0.856183,-0.203165 1.167571,-0.32772 0.342527,-0.155694 0.638511,-0.295371 0.887621,-0.419926 0.24911,-0.124554 0.435346,-0.202152 0.559901,-0.233292 v -3.082788 c -0.124555,0.03114 -0.372869,0.124256 -0.746535,0.27995 -0.373664,0.124555 -0.810437,0.186634 -1.308657,0.186634 -0.52936,0 -0.856383,-0.170716 -0.980938,-0.513243 -0.124555,-0.342526 -0.124555,-0.872416 0,-1.588608 l 1.120913,-7.940819 h 3.597142 l 0.373267,-3.176105 h -3.549372 z m 51.986368,0 4.2037,10.555912 -7.42646,10.649229 h 5.13798 c 0.18683,-0.280248 0.48281,-0.746949 0.88762,-1.400863 0.43594,-0.685052 0.8716,-1.401178 1.30754,-2.148509 0.43595,-0.778471 0.85609,-1.525635 1.26089,-2.241826 0.43595,-0.716193 0.76297,-1.261601 0.98094,-1.635267 0.0623,0.404804 0.20306,0.965733 0.42104,1.681925 0.21797,0.716192 0.43525,1.447836 0.65321,2.195168 0.21798,0.747331 0.43637,1.447937 0.65433,2.10185 0.21798,0.653916 0.3898,1.136136 0.51436,1.447522 h 5.27795 l -4.48476,-10.60257 7.19317,-10.602571 h -5.13798 c -0.15569,0.28025 -0.43615,0.76247 -0.84096,1.447522 -0.37367,0.685054 -0.79381,1.401178 -1.26089,2.148509 -0.43594,0.716193 -0.85608,1.432317 -1.26089,2.14851 -0.4048,0.685053 -0.68526,1.214942 -0.84096,1.588608 -0.0623,-0.373666 -0.20195,-0.903555 -0.41992,-1.588608 -0.21798,-0.685054 -0.43636,-1.401178 -0.65433,-2.14851 -0.21797,-0.747331 -0.43525,-1.463455 -0.65322,-2.148509 -0.18683,-0.685052 -0.32762,-1.167272 -0.42104,-1.447522 z m -26.85636,4.297019 c -0.5605,0 -1.09039,0.09312 -1.58861,0.27995 -0.49822,0.186833 -0.9494,0.420739 -1.35421,0.700987 -0.4048,0.28025 -0.77838,0.560714 -1.12091,0.840963 -0.31139,0.28025 -0.5453,0.513044 -0.70099,0.699876 h -0.0467 l 0.13998,-2.148509 h -4.06373 l -3.30053,23.430306 c -0.29906,2.12303 -1.1753,3.11259 -2.59954,4.16926 -2.59693,1.90366 -8.339701,3.62802 -20.720778,0.58212 -11.329258,-2.78713 -18.412515,-0.67886 -24.160175,1.81523 -5.74766,2.49409 -10.018338,5.10109 -17.562451,4.36812 -6.951407,-0.67539 -11.047656,-2.77546 -13.337643,-5.26907 -2.289986,-2.49361 -2.967992,-5.50852 -2.63509,-8.68402 0.332901,-3.175487 1.774707,-6.426163 3.616028,-8.788445 1.841321,-2.362281 4.068994,-3.667208 5.403489,-3.711566 1.18652,-0.04003 2.116025,-1.034188 2.0763,-2.220719 -0.04064,-1.185184 -1.033241,-2.113666 -2.218497,-2.075188 -3.390795,0.112707 -6.322718,2.374337 -8.651804,5.362385 -2.329086,2.988047 -4.07102,6.870763 -4.502538,10.986943 -0.431517,4.11618 0.543314,8.55151 3.746005,12.03899 3.20269,3.48747 8.438795,5.89895 16.088268,6.64216 8.71806,0.84703 14.249725,-2.34583 19.690964,-4.70695 5.441238,-2.36113 10.933929,-4.16181 21.420658,-1.58194 13.049048,3.21022 20.275944,1.65309 24.289044,-1.28866 4.01308,-2.94175 4.30812,-7.27761 4.30812,-7.27761 0.36061,-2.49471 0.73562,-4.99403 1.10547,-7.489763 0.93417,0.435944 1.99284,0.654329 3.17611,0.654329 0.87189,0 1.7288,-0.171827 2.56955,-0.514353 0.84074,-0.373666 1.58791,-0.917964 2.24182,-1.634156 0.68505,-0.747331 1.2615,-1.681842 1.72859,-2.802838 0.4982,-1.120997 0.85628,-2.44461 1.07425,-3.970409 0.18683,-1.463524 0.20235,-2.708427 0.0467,-3.736007 -0.12456,-1.058718 -0.37398,-1.931151 -0.74765,-2.616204 -0.34252,-0.685052 -0.80923,-1.198312 -1.40086,-1.540839 -0.59164,-0.342527 -1.26121,-0.514353 -2.00853,-0.514353 z m -14.38635,0.04666 -4.48476,0.60767 -2.24183,16.253794 h 4.34479 z m 35.73146,0 -4.48365,0.60767 -2.24183,16.253794 h 4.34368 z m -76.928625,0.326609 -1.587497,11.163582 c -0.249109,1.961745 -0.124954,3.425034 0.373268,4.390336 0.498219,0.934163 1.52585,1.401974 3.082788,1.401974 0.52936,0 1.02821,-0.07871 1.495291,-0.234403 0.467083,-0.155694 0.887223,-0.32641 1.260889,-0.513243 0.373664,-0.21797 0.685169,-0.420837 0.934279,-0.60767 0.24911,-0.186832 0.435345,-0.357548 0.559901,-0.513243 l 1.027596,-0.794304 -0.04666,2.241826 h 3.783775 L 78.02598,82.001644 h -4.390335 l -1.588608,11.303558 c -0.124555,0.124555 -0.310791,0.296383 -0.559901,0.514353 -0.217972,0.186833 -0.451877,0.388588 -0.700987,0.60656 -0.249111,0.186833 -0.529574,0.358659 -0.840963,0.514353 -0.280248,0.124555 -0.576232,0.186634 -0.887621,0.186634 -0.404804,0 -0.715197,-0.06208 -0.933168,-0.186634 -0.217972,-0.155694 -0.374279,-0.389599 -0.467695,-0.700987 -0.06228,-0.311388 -0.0778,-0.73153 -0.04666,-1.260888 0.06228,-0.52936 0.155396,-1.183405 0.279951,-1.961876 l 1.260888,-9.015073 z m 53.293915,3.317191 c 0.84075,0 1.4172,0.373583 1.72858,1.120913 0.34253,0.747332 0.38908,2.069834 0.13998,3.969299 -0.28025,1.961743 -0.74695,3.347435 -1.40087,4.157043 -0.6539,0.809608 -1.52634,1.215341 -2.6162,1.215341 -0.71619,0 -1.32257,-0.125268 -1.82079,-0.374379 l 1.16757,-8.267427 c 0.0934,-0.124555 0.24861,-0.295271 0.46659,-0.513243 0.21797,-0.24911 0.45187,-0.467496 0.70098,-0.654329 0.24911,-0.186832 0.51406,-0.342029 0.79431,-0.466584 0.28024,-0.124555 0.5596,-0.186634 0.83985,-0.186634 z"
         sodipodi:nodetypes="ssccscccsssccscccsccccccccccccccsccscccccsccccsccscccccccsccscsccccccccccccsccscccssccccccccccccccssscccccccccssccccsscccccscsssssscccsssssssccsccccccsscccccccccccscsscsccccccccccsccccccsccsscccsssc" />
      <path
         id="path1571"
         style="opacity:1;fill:#f95959;fill-opacity:1;stroke:none;stroke-width:10;stroke-linecap:round;stroke-dasharray:none"
         d="M 41.160274 100.14288 A 2.3311255 2.3311255 0 0 0 38.829575 102.47469 A 2.3311255 2.3311255 0 0 0 41.160274 104.80539 A 2.3311255 2.3311255 0 0 0 43.492084 102.47469 A 2.3311255 2.3311255 0 0 0 41.160274 100.14288 z M 49.915393 100.14288 A 2.3311255 2.3311255 0 0 0 47.584694 102.47469 A 2.3311255 2.3311255 0 0 0 49.915393 104.80539 A 2.3311255 2.3311255 0 0 0 52.246092 102.47469 A 2.3311255 2.3311255 0 0 0 49.915393 100.14288 z M 58.669402 100.14288 A 2.3311255 2.3311255 0 0 0 56.338702 102.47469 A 2.3311255 2.3311255 0 0 0 58.669402 104.80539 A 2.3311255 2.3311255 0 0 0 61.001212 102.47469 A 2.3311255 2.3311255 0 0 0 58.669402 100.14288 z M 67.424521 100.14288 A 2.3311255 2.3311255 0 0 0 65.092711 102.47469 A 2.3311255 2.3311255 0 0 0 67.424521 104.80539 A 2.3311255 2.3311255 0 0 0 69.75522 102.47469 A 2.3311255 2.3311255 0 0 0 67.424521 100.14288 z M 76.178529 100.14288 A 2.3311255 2.3311255 0 0 0 73.84783 102.47469 A 2.3311255 2.3311255 0 0 0 76.178529 104.80539 A 2.3311255 2.3311255 0 0 0 78.510339 102.47469 A 2.3311255 2.3311255 0 0 0 76.178529 100.14288 z M 84.933649 100.14288 A 2.3311255 2.3311255 0 0 0 82.601838 102.47469 A 2.3311255 2.3311255 0 0 0 84.933649 104.80539 A 2.3311255 2.3311255 0 0 0 87.264348 102.47469 A 2.3311255 2.3311255 0 0 0 84.933649 100.14288 z M 93.687657 100.14288 A 2.3311255 2.3311255 0 0 0 91.356958 102.47469 A 2.3311255 2.3311255 0 0 0 93.687657 104.80539 A 2.3311255 2.3311255 0 0 0 96.018356 102.47469 A 2.3311255 2.3311255 0 0 0 93.687657 100.14288 z M 102.44167 100.14288 A 2.3311255 2.3311255 0 0 0 100.11097 102.47469 A 2.3311255 2.3311255 0 0 0 102.44167 104.80539 A 2.3311255 2.3311255 0 0 0 104.77348 102.47469 A 2.3311255 2.3311255 0 0 0 102.44167 100.14288 z M 119.05984 100.14288 A 2.3311255 2.3311255 0 0 0 116.72803 102.47469 A 2.3311255 2.3311255 0 0 0 119.05984 104.80539 A 2.3311255 2.3311255 0 0 0 121.39054 102.47469 A 2.3311255 2.3311255 0 0 0 119.05984 100.14288 z M 127.81385 100.14288 A 2.3311255 2.3311255 0 0 0 125.48315 102.47469 A 2.3311255 2.3311255 0 0 0 127.81385 104.80539 A 2.3311255 2.3311255 0 0 0 130.14455 102.47469 A 2.3311255 2.3311255 0 0 0 127.81385 100.14288 z M 136.56897 100.14288 A 2.3311255 2.3311255 0 0 0 134.23716 102.47469 A 2.3311255 2.3311255 0 0 0 136.56897 104.80539 A 2.3311255 2.3311255 0 0 0 138.89967 102.47469 A 2.3311255 2.3311255 0 0 0 136.56897 100.14288 z M 145.32298 100.14288 A 2.3311255 2.3311255 0 0 0 142.99228 102.47469 A 2.3311255 2.3311255 0 0 0 145.32298 104.80539 A 2.3311255 2.3311255 0 0 0 147.65367 102.47469 A 2.3311255 2.3311255 0 0 0 145.32298 100.14288 z M 154.07698 100.14288 A 2.3311255 2.3311255 0 0 0 151.74628 102.47469 A 2.3311255 2.3311255 0 0 0 154.07698 104.80539 A 2.3311255 2.3311255 0 0 0 156.40879 102.47469 A 2.3311255 2.3311255 0 0 0 154.07698 100.14288 z M 162.8321 100.14288 A 2.3311255 2.3311255 0 0 0 160.50029 102.47469 A 2.3311255 2.3311255 0 0 0 162.8321 104.80539 A 2.3311255 2.3311255 0 0 0 165.1628 102.47469 A 2.3311255 2.3311255 0 0 0 162.8321 100.14288 z " />
    </g>
  </g>
</svg>
